<svg width="39" height="39" viewBox="0 0 39 39" fill="none" xmlns="http://www.w3.org/2000/svg">
<path d="M14.625 14.625H24.375V24.375H14.625V14.625Z" fill="#6D6C6C"/>
<path d="M32.5 9.75C32.5 7.95762 31.0424 6.5 29.25 6.5H26V3.25H22.75V6.5H16.25V3.25H13V6.5H9.75C7.95762 6.5 6.5 7.95762 6.5 9.75V13H3.25V16.25H6.5V22.75H3.25V26H6.5V29.25C6.5 31.0424 7.95762 32.5 9.75 32.5H13V35.75H16.25V32.5H22.75V35.75H26V32.5H29.25C31.0424 32.5 32.5 31.0424 32.5 29.25V26H35.75V22.75H32.5V16.25H35.75V13H32.5V9.75ZM9.75 29.25V9.75H29.25L29.2533 29.25H9.75Z" fill="#6D6C6C"/>
</svg>
