<svg width="39" height="39" viewBox="0 0 39 39" fill="none" xmlns="http://www.w3.org/2000/svg">
<path d="M33.7511 27.4122C34.3321 25.2453 34.4067 22.9737 33.9693 20.7733C33.5318 18.5729 32.594 16.5027 31.2284 14.7227C29.8628 12.9427 28.106 11.5008 26.0939 10.5085C24.0819 9.51613 21.8685 9 19.625 9C17.3815 9 15.1681 9.51613 13.1561 10.5085C11.144 11.5008 9.38718 12.9427 8.02157 14.7227C6.65596 16.5027 5.71815 18.5729 5.28071 20.7733C4.84327 22.9737 4.91791 25.2453 5.49888 27.4122" stroke="#6D6C6C" stroke-width="3" stroke-linecap="round"/>
<path d="M20.87 24.5717C21.6613 25.7255 21.104 27.4837 19.6252 28.4993C18.1465 29.5166 16.3053 29.4061 15.514 28.254C14.669 27.0255 11.7537 20.1176 9.98409 15.8438C9.65096 15.0395 10.6341 14.3635 11.2678 14.9631C14.6218 18.1481 20.0266 23.3432 20.87 24.5717Z" stroke="#6D6C6C" stroke-width="3"/>
<path d="M19.6251 9.00098V12.251M9.28365 13.2845L11.5814 15.5822M29.9666 13.2845L27.6689 15.5822M33.7513 27.4122L30.6134 26.5705M5.49902 27.4122L8.6369 26.5705" stroke="#6D6C6C" stroke-width="2" stroke-linecap="round"/>
</svg>
