<svg width="39" height="39" viewBox="0 0 39 39" fill="none" xmlns="http://www.w3.org/2000/svg">
<path fill-rule="evenodd" clip-rule="evenodd" d="M8.98626 29.6677C6.99012 27.6033 5.64589 24.9969 5.1212 22.1737C4.59652 19.3504 4.9146 16.4351 6.03577 13.7914C7.15695 11.1477 9.0316 8.89254 11.426 7.30719C13.8203 5.72185 16.6284 4.87646 19.5 4.87646C22.3716 4.87646 25.1797 5.72185 27.5741 7.30719C29.9684 8.89254 31.8431 11.1477 32.9642 13.7914C34.0854 16.4351 34.4035 19.3504 33.8788 22.1737C33.3541 24.9969 32.0099 27.6033 30.0138 29.6677C29.9681 29.7133 29.9061 29.739 29.8415 29.739C29.7769 29.739 29.715 29.7133 29.6693 29.6677L23.1205 23.1189C23.0738 23.0737 23.0115 23.0481 22.9465 23.0475C22.8814 23.0469 22.8187 23.0713 22.7711 23.1157C21.8746 23.9265 20.7088 24.3753 19.5 24.375C18.2912 24.3753 17.1254 23.9265 16.2289 23.1157C16.1814 23.0718 16.119 23.0477 16.0544 23.0483C15.9897 23.0489 15.9278 23.0741 15.8811 23.1189L9.33238 29.6677C9.28668 29.7133 9.22473 29.739 9.16013 29.739C9.09554 29.739 9.03196 29.7133 8.98626 29.6677ZM28.4635 16.0177C28.8245 15.7917 29.0824 15.4331 29.1817 15.0189C29.281 14.6048 29.2137 14.1682 28.9943 13.8031C28.775 13.4381 28.421 13.1738 28.0087 13.067C27.5964 12.9603 27.1587 13.0197 26.7898 13.2324L18.6648 18.1074C18.3037 18.3333 18.0458 18.692 17.9465 19.1061C17.8473 19.5203 17.9146 19.9569 18.1339 20.3219C18.3533 20.687 18.7072 20.9513 19.1195 21.0581C19.5318 21.1648 19.9696 21.1054 20.3385 20.8927L28.4635 16.0177Z" fill="#6D6C6C"/>
</svg>
