<svg width="39" height="39" viewBox="0 0 39 39" fill="none" xmlns="http://www.w3.org/2000/svg">
<path d="M8.00313 30.9969C6.54063 29.5344 5.38309 27.8146 4.5305 25.8375C3.67792 23.8604 3.25109 21.7479 3.25 19.5C3.24892 17.2521 3.67575 15.1396 4.5305 13.1625C5.38525 11.1854 6.54279 9.46562 8.00313 8.00312L9.75 9.75C8.47709 11.0229 7.48204 12.4854 6.76488 14.1375C6.04771 15.7896 5.68859 17.5771 5.6875 19.5C5.68642 21.4229 6.04554 23.2104 6.76488 24.8625C7.48421 26.5146 8.47925 27.9771 9.75 29.25L8.00313 30.9969ZM11.4563 27.5438C10.4271 26.5146 9.61459 25.3094 9.01875 23.9281C8.42292 22.5469 8.125 21.0708 8.125 19.5C8.125 17.9292 8.42292 16.4531 9.01875 15.0719C9.61459 13.6906 10.4271 12.4854 11.4563 11.4562L13.1625 13.1625C12.35 13.975 11.7135 14.9229 11.2531 16.0062C10.7927 17.0896 10.5625 18.2542 10.5625 19.5C10.5625 20.7458 10.7927 21.9104 11.2531 22.9937C11.7135 24.0771 12.35 25.025 13.1625 25.8375L11.4563 27.5438ZM17.875 26.8125C17.875 26.1896 17.6654 25.5737 17.2461 24.9649C16.8269 24.356 16.3594 23.7196 15.8438 23.0555C15.3281 22.3914 14.8612 21.7002 14.443 20.982C14.0248 20.2637 13.8147 19.4989 13.8125 18.6875C13.8125 17.1167 14.3677 15.776 15.4781 14.6656C16.5885 13.5552 17.9292 13 19.5 13C21.0708 13 22.4115 13.5552 23.5219 14.6656C24.6323 15.776 25.1875 17.1167 25.1875 18.6875C25.1875 19.5 24.9779 20.2654 24.5586 20.9836C24.1394 21.7019 23.6719 22.392 23.1563 23.0539C22.6406 23.7158 22.1737 24.3528 21.7555 24.9649C21.3373 25.577 21.1272 26.1928 21.125 26.8125H17.875ZM17.875 30.875V28.4375H21.125V30.875H17.875ZM27.5438 27.5438L25.8375 25.8375C26.65 25.025 27.2865 24.0771 27.7469 22.9937C28.2073 21.9104 28.4375 20.7458 28.4375 19.5C28.4375 18.2542 28.2073 17.0896 27.7469 16.0062C27.2865 14.9229 26.65 13.975 25.8375 13.1625L27.5438 11.4562C28.5729 12.4854 29.3854 13.6906 29.9813 15.0719C30.5771 16.4531 30.875 17.9292 30.875 19.5C30.875 21.0708 30.5771 22.5469 29.9813 23.9281C29.3854 25.3094 28.5729 26.5146 27.5438 27.5438ZM30.9969 30.9969L29.25 29.25C30.5229 27.9771 31.5185 26.5146 32.2368 24.8625C32.955 23.2104 33.3136 21.4229 33.3125 19.5C33.3114 17.5771 32.9523 15.7896 32.2351 14.1375C31.518 12.4854 30.5229 11.0229 29.25 9.75L30.9969 8.00312C32.4594 9.46562 33.6175 11.1854 34.4711 13.1625C35.3248 15.1396 35.7511 17.2521 35.75 19.5C35.7489 21.7479 35.3221 23.8604 34.4695 25.8375C33.6169 27.8146 32.4594 29.5344 30.9969 30.9969Z" fill="#4F9A83"/>
</svg>
