<svg width="39" height="39" viewBox="0 0 39 39" fill="none" xmlns="http://www.w3.org/2000/svg">
<path d="M2.37598 23.5625V15.4375H4.00098V23.5625H2.37598ZM6.8756 26.8125V12.1875H8.5006V26.8125H6.8756ZM34.9995 23.5625V15.4375H36.6245V23.5625H34.9995ZM30.4999 26.8125V12.1875H32.1249V26.8125H30.4999ZM14.0012 32.5C13.2786 32.5 12.6606 32.2427 12.1471 31.7281C11.6336 31.2135 11.3763 30.5966 11.3752 29.8772V9.12437C11.3752 8.40287 11.6325 7.78537 12.1471 7.27187C12.6617 6.75837 13.2792 6.50108 13.9996 6.5H25.0009C25.7224 6.5 26.3399 6.75729 26.8534 7.27187C27.3669 7.78646 27.6241 8.40396 27.6252 9.12437V29.8756C27.6252 30.5971 27.3679 31.2146 26.8534 31.7281C26.3388 32.2416 25.7213 32.4989 25.0009 32.5H14.0012Z" fill="#6D6C6C"/>
</svg>
