<svg width="39" height="39" viewBox="0 0 39 39" fill="none" xmlns="http://www.w3.org/2000/svg">
<g clip-path="url(#clip0_79_172)">
<path d="M20.7188 36.5625C18.84 36.5633 17.0135 35.944 15.5228 34.8006C14.0321 33.6572 12.9605 32.0537 12.4743 30.239C11.9881 28.4243 12.1145 26.4998 12.834 24.7643C13.5534 23.0288 14.8256 21.5793 16.4531 20.6408L17.0625 20.2898V6.09375C17.0592 5.23136 17.3616 4.39569 17.916 3.73517C18.4705 3.07464 19.2411 2.632 20.0911 2.48586C20.941 2.33973 21.8152 2.49955 22.5584 2.93695C23.3017 3.37435 23.8659 4.06102 24.1508 4.875H20.7188V7.3125H24.375V9.75H20.7188V12.1875H24.375V14.625H20.7188V17.0625H24.375V20.2898L24.9844 20.6408C26.6119 21.5793 27.8841 23.0288 28.6035 24.7643C29.323 26.4998 29.4494 28.4243 28.9632 30.239C28.477 32.0537 27.4054 33.6572 25.9147 34.8006C24.424 35.944 22.5975 36.5633 20.7188 36.5625ZM26.8125 18.9101V6.09375C26.8125 4.47759 26.1705 2.92762 25.0277 1.78482C23.8849 0.642018 22.3349 0 20.7188 0C19.1026 0 17.5526 0.642018 16.4098 1.78482C15.267 2.92762 14.625 4.47759 14.625 6.09375V18.9101C12.6684 20.2175 11.184 22.1194 10.3912 24.335C9.59844 26.5506 9.53921 28.9625 10.2223 31.2144C10.9054 33.4663 12.2945 35.4388 14.1846 36.8406C16.0747 38.2424 18.3656 38.9992 20.7188 38.9992C23.0719 38.9992 25.3628 38.2424 27.2529 36.8406C29.143 35.4388 30.5321 33.4663 31.2152 31.2144C31.8983 28.9625 31.8391 26.5506 31.0463 24.335C30.2535 22.1194 28.7691 20.2175 26.8125 18.9101Z" fill="#6D6C6C"/>
<path d="M20.7188 21.9375C22.3349 21.9375 23.8849 22.5795 25.0277 23.7223C26.1705 24.8651 26.8125 26.4151 26.8125 28.0312C26.8125 29.6474 26.1705 31.1974 25.0277 32.3402C23.8849 33.483 22.3349 34.125 20.7188 34.125C19.1026 34.125 17.5526 33.483 16.4098 32.3402C15.267 31.1974 14.625 29.6474 14.625 28.0312C14.625 26.4151 15.267 24.8651 16.4098 23.7223C17.5526 22.5795 19.1026 21.9375 20.7188 21.9375Z" fill="#6D6C6C"/>
</g>
<defs>
<clipPath id="clip0_79_172">
<rect width="39" height="39" fill="white"/>
</clipPath>
</defs>
</svg>
