<svg width="39" height="39" viewBox="0 0 39 39" fill="none" xmlns="http://www.w3.org/2000/svg">
<path opacity="0.25" d="M9.75 37.375H3.25C2.81902 37.375 2.4057 37.2038 2.10095 36.899C1.7962 36.5943 1.625 36.181 1.625 35.75V22.75C1.625 22.319 1.7962 21.9057 2.10095 21.601C2.4057 21.2962 2.81902 21.125 3.25 21.125H9.75C10.181 21.125 10.5943 21.2962 10.899 21.601C11.2038 21.9057 11.375 22.319 11.375 22.75V35.75C11.375 36.181 11.2038 36.5943 10.899 36.899C10.5943 37.2038 10.181 37.375 9.75 37.375Z" fill="#325E5D"/>
<path d="M22.75 37.375H16.25C15.819 37.375 15.4057 37.2038 15.101 36.899C14.7962 36.5943 14.625 36.181 14.625 35.75V3.25C14.625 2.81902 14.7962 2.4057 15.101 2.10095C15.4057 1.7962 15.819 1.625 16.25 1.625H22.75C23.181 1.625 23.5943 1.7962 23.899 2.10095C24.2038 2.4057 24.375 2.81902 24.375 3.25V35.75C24.375 36.181 24.2038 36.5943 23.899 36.899C23.5943 37.2038 23.181 37.375 22.75 37.375Z" fill="#4F9A83"/>
<path opacity="0.5" d="M35.75 37.375H29.25C28.819 37.375 28.4057 37.2038 28.101 36.899C27.7962 36.5943 27.625 36.181 27.625 35.75V16.25C27.625 15.819 27.7962 15.4057 28.101 15.101C28.4057 14.7962 28.819 14.625 29.25 14.625H35.75C36.181 14.625 36.5943 14.7962 36.899 15.101C37.2038 15.4057 37.375 15.819 37.375 16.25V35.75C37.375 36.181 37.2038 36.5943 36.899 36.899C36.5943 37.2038 36.181 37.375 35.75 37.375Z" fill="#377C69"/>
</svg>
